<svg xmlns="http://www.w3.org/2000/svg" viewBox="0 0 32 32"><path fill="red" d="M15.860614.001005c.102388-.000896.204783-.000805.30717.000267l-.167547 15.998871Z"/><path fill="#ff0400" d="M16.139858.001005c.102389.000895.204766.00277.307118.005631l-.446739 15.993511Z"/><path fill="#ff0900" d="M16.41906.00588c.102358.00268.204685.006342.306972.010987l-.725795 15.98328Z"/><path fill="#ff0d00" d="M16.698135.015625c.102295.004467.204543.009916.306733.016344l-1.004631 15.968178Z"/><path fill="#f10" d="M16.976995.030239c.102204.006252.20434.013483.306405.021696l-1.283163 15.948212Z"/><path fill="#ff1500" d="M17.255562.049721c.102075.008032.204073.017046.305975.027036l-1.5613 15.92339Z"/><path fill="#ff1a00" d="M17.533745.074059c.101919.009813.203745.020605.305458.032373l-1.838966 15.893715Z"/><path fill="#ff1e00" d="M17.811459.103247c.101736.011589.203353.024158.304845.0377l-2.116067 15.8592Z"/><path fill="#f20" d="M18.088623.137278c.101515.013364.2029.027704.30414.043014l-2.392526 15.819855Z"/><path fill="#ff2600" d="M18.36515.17614c.101267.015135.202385.031242.303345.048317l-2.668258 15.77569Z"/><path fill="#ff2b00" d="M18.640957.219826c.100988.016899.201811.034765.302456.053602l-2.943176 15.726719Z"/><path fill="#ff2f00" d="M18.915958.268314c.10068.01866.201176.038287.301476.058874l-3.217197 15.672959Z"/><path fill="#f30" d="M19.190073.321596c.100336.020414.200474.04179.3004.064127l-3.490236 15.614424Z"/><path fill="#ff3700" d="M19.463217.379656c.099962.022159.199713.045282.299234.069359l-3.762214 15.551132Z"/><path fill="#ff3c00" d="M19.735304.442472c.099563.023901.198892.04876.297979.07457l-4.033046 15.483105Z"/><path fill="#ff4000" d="M20.006252.510027c.099133.025637.198014.052225.296635.079761l-4.30265 15.410359Z"/><path fill="none" d="M20.275984.582302c.098667.027363.197071.055672.295194.084925l-4.570941 15.33292Z"/><path fill="#f40" d="M20.275984.582302c.098667.027363.197071.055672.295194.084925l-4.570941 15.33292Z"/><path fill="#ff4800" d="M20.544411.659271c.098175.029082.196069.059103.293668.090063l-4.837842 15.250813Z"/><path fill="#ff4d00" d="M20.811453.740913c.097652.030793.195009.062518.292053.095177l-5.103269 15.164057Z"/><path fill="#ff5100" d="M21.07703.827206c.097103.032489.193888.06591.290346.100258l-5.367139 15.072683Z"/><path fill="#f50" d="M21.341063.918119c.096517.034178.192707.069283.288551.105311l-5.629377 14.976717Z"/><path fill="#ff5900" d="M21.603466 1.013626c.095907.03586.191467.072636.286671.110329l-5.8899 14.876192Z"/><path fill="#ff5e00" d="M21.864164 1.113699c.095267.037527.190173.075968.284699.115314l-6.148626 14.771134Z"/><path fill="#ff6200" d="M22.123077 1.218306c.094595.039184.188815.079273.282645.120267l-6.405485 14.661574Z"/><path fill="#f60" d="M22.380121 1.327415c.093901.040829.187407.08256.280506.125182l-6.66039 14.54755Z"/><path fill="#ff6a00" d="M22.635223 1.440994c.093172.042462.185936.085816.278277.130059l-6.913263 14.429094Z"/><path fill="#ff6f00" d="M22.888306 1.55901c.092416.04408.18441.089046.275964.134893l-7.164033 14.306244Z"/><path fill="#ff7300" d="M23.139288 1.681421c.091635.045687.182829.092253.273569.139691l-7.41262 14.179035Z"/><path fill="#f70" d="M23.388098 1.808197c.090822.047277.181188.095428.271086.144442l-7.658947 14.047508Z"/><path fill="#ff7b00" d="M23.634657 1.939295c.089983.048857.179495.098575.268526.149151l-7.902946 13.911701Z"/><path fill="#ff8000" d="M23.878889 2.074673c.089119.05042.17775.101696.265881.153818l-8.144533 13.771656Z"/><path fill="#ff8400" d="M24.120724 2.214296c.088222.051968.175947.104781.263155.158432l-8.383642 13.627419Z"/><path fill="#f80" d="M24.360083 2.358118c.087303.053499.174091.107836.260351.163l-8.620197 13.479029Z"/><path fill="#ff8c00" d="M24.596895 2.506096c.086357.055014.172184.110857.257467.16752l-8.854125 13.326531Z"/><path fill="#ff9100" d="M24.831089 2.658184c.085384.056513.170223.113846.254507.171988l-9.085359 13.169975Z"/><path fill="#ff9500" d="M25.062595 2.814335c.084381.057995.168209.116798.251463.176403l-9.313821 13.009409Z"/><path fill="#f90" d="M25.29134 2.974503c.083359.059459.166141.119716.248346.180767l-9.539449 12.844877Z"/><path fill="#ff9d00" d="M25.517252 3.138639c.08231.060904.164032.122599.245155.185072l-9.76217 12.676436Z"/><path fill="#ffa200" d="M25.740267 3.306692c.08123.062332.161867.125445.241886.189324l-9.981916 12.504131Z"/><path fill="#ffa600" d="M25.960314 3.478611c.080133.063742.159653.12825.238546.193518L16.000237 16.000147Z"/><path fill="#fa0" d="M26.177328 3.654346c.079008.065129.157391.131016.235134.197651l-10.412225 12.14815Z"/><path fill="#ffae00" d="M26.391243 3.833841c.077858.066498.155077.133742.231646.201723L16.000237 16.000147Z"/><path fill="#ffb300" d="M26.60199 4.017042c.076689.067846.152721.136429.228092.205736L16.000237 16.000147Z"/><path fill="#ffb700" d="M26.809509 4.203894c.075493.069173.150318.139074.224467.209684L16.000237 16.000147Z"/><path fill="#fb0" d="M27.013739 4.394337c.07427.070484.147865.141676.22077.213571L16.000237 16.000147Z"/><path fill="#fb0" d="M27.013739 4.394337c.07427.070484.147865.141676.22077.213571L16.000237 16.000147Z"/><path fill="#ffbf00" d="M27.214609 4.58832c.073033.071766.145371.144233.217013.217388L16.000237 16.000147Z"/><path fill="#ffc400" d="M27.412067 4.785774c.071766.073031.142832.146748.213181.221144L16.000237 16.000147Z"/><path fill="#ffc800" d="M27.606045 4.986647c.070482.074272.140249.149219.209291.22483l-11.815099 10.78867Z"/><path fill="#fc0" d="M27.79649 5.190874c.069175.075489.137623.151644.205335.228449L16.000237 16.000147Z"/><path fill="#ffd000" d="M27.983341 5.398392c.067847.076687.134957.154024.201317.231998L16.000237 16.000147Z"/><path fill="#ffd500" d="M28.166544 5.60914c.066494.07786.132246.156355.197237.235478L16.000237 16.000147Z"/><path fill="#ffd900" d="M28.346039 5.823055c.065126.079006.129497.15864.193096.238884l-12.538898 9.938208Z"/><path fill="#fd0" d="M28.52177 6.040068c.06374.080133.126711.160877.1889.242218l-12.710433 9.717861Z"/><path fill="#ffe100" d="M28.693691 6.260115c.06233.081236.123883.163065.184643.245479l-12.878097 9.494553Z"/><path fill="#ffe600" d="M28.861746 6.483131c.060905.08231.121017.165202.180332.248661l-13.041841 9.268355Z"/><path fill="#ffea00" d="M29.025881 6.709045c.059458.083359.118118.167284.175964.251772l-13.201608 9.03933Z"/><path fill="#fe0" d="M29.186049 6.937788c.057996.084385.115179.169323.171545.254805l-13.357357 8.807554Z"/><path fill="#fff200" d="M29.342201 7.169292c.056513.085383.112206.171309.167071.25776l-13.509035 8.573095Z"/><path fill="#fff700" d="M29.494289 7.403488c.055014.086355.109198.173239.162547.260634l-13.656599 8.336025Z"/><path fill="#fffb00" d="M29.642265 7.640301c.0535.087303.10616.175117.157975.263433l-13.800003 8.096413Z"/><path fill="#ff0" d="M29.786087 7.87966c.051968.088224.103087.176944.153353.266151l-13.939203 7.854336Z"/><path fill="#fbff00" d="M29.925709 8.121494c.050419.089117.099985.178717.148683.268786l-14.074155 7.609867Z"/><path fill="#f7ff00" d="M30.061092 8.365726c.048857.089983.096848.180436.143967.27134l-14.204822 7.363081Z"/><path fill="#f2ff00" d="M30.192186 8.612286c.047282.090822.093687.182096.139214.273809l-14.331163 7.114052Z"/><path fill="#ef0" d="M30.318962 8.861094c.045687.091634.090492.183704.134413.276199l-14.453138 6.862854Z"/><path fill="#eaff00" d="M30.441376 9.112076c.04408.092418.087272.185257.129574.278503l-14.570713 6.609568Z"/><path fill="#e6ff00" d="M30.559389 9.365158c.042462.093172.084028.18675.124693.280722l-14.683845 6.354267Z"/><path fill="#e1ff00" d="M30.672968 9.620262c.040829.093899.080755.188189.119772.282854l-14.792503 6.097031Z"/><path fill="#df0" d="M30.782078 9.877306c.039182.094599.077457.189569.114818.284904l-14.896659 5.837937Z"/><path fill="#d9ff00" d="M30.886686 10.136219c.037526.095268.074135.190891.109825.286861l-14.996274 5.577067Z"/><path fill="#d5ff00" d="M30.986757 10.396917c.035857.095908.070793.192156.104807.288735l-15.091327 5.314495Z"/><path fill="#d0ff00" d="M31.082266 10.659321c.034176.096519.067428.193365.099748.290521l-15.181777 5.050305Z"/><path fill="#cf0" d="M31.173176 10.923353c.032491.097099.064047.19451.094667.292216l-15.267606 4.784578Z"/><path fill="#c8ff00" d="M31.25947 11.188931c.030788.097652.060638.195598.08955.293823l-15.348783 4.517393Z"/><path fill="#c4ff00" d="M31.34111 11.455973c.029082.098177.057221.196628.084412.295343l-15.425285 4.248831Z"/><path fill="#bfff00" d="M31.418083 11.724401c.027361.098668.053778.197594.079241.296771l-15.497087 3.978975Z"/><path fill="#bf0" d="M31.490356 11.994131c.025637.099129.050322.198502.074049.298107l-15.564168 3.707909Z"/><path fill="#b7ff00" d="M31.557915 12.265079c.023901.099566.046848.199355.068834.299357l-15.626512 3.435711Z"/><path fill="#b3ff00" d="M31.620729 12.537169c.02216.099964.04336.200138.063601.30051l-15.684093 3.162468Z"/><path fill="#aeff00" d="M31.678787 12.81031c.020415.100336.039864.200867.058348.301577l-15.736898 2.88826Z"/><path fill="#af0" d="M31.732067 13.084425c.018662.100677.036354.20153.053076.302549l-15.784906 2.613173Z"/><path fill="#a6ff00" d="M31.78056 13.359426c.016899.100989.032831.202137.047784.303431l-15.828107 2.33729Z"/><path fill="#a2ff00" d="M31.824242 13.635235c.015134.101265.029297.202675.042486.304214l-15.866491 2.060698Z"/><path fill="#9eff00" d="M31.863106 13.91176c.013365.101517.025757.203158.037168.304913l-15.900037 1.783474Z"/><path fill="#9f0" d="M31.897135 14.188925c.011595.101732.022209.203575.031841.305513l-15.928739 1.505709Z"/><path fill="#95ff00" d="M31.926329 14.466639c.009811.101921.018648.203933.026502.306022l-15.952594 1.227486Z"/><path fill="#91ff00" d="M31.950666 14.744822c.00803.102077.015088.204227.021159.306438l-15.971588.948887Z"/><path fill="#8cff00" d="M31.970142 15.023388c.006251.102199.011523.204458.015808.306759l-15.985713.67Z"/><path fill="#8f0" d="M31.984756 15.30225c.004467.102295.007952.204626.010449.306988l-15.99497.390909Z"/><path fill="#84ff00" d="M31.994505 15.581326c.00268.102354.004375.204732.005089.307125l-15.999359.111696Z"/><path fill="#80ff00" d="M31.999378 15.860527c.000904.102387.00082.204781-.00024.307167l-15.998877-.167547Z"/><path fill="#7bff00" d="M31.999378 16.139771a16.02714751 16.02714751 0 0 1-.005625.307115l-15.993511-.446739Z"/><path fill="#7f0" d="M31.994505 16.418972c-.00268.102356-.00634.204685-.010984.306973l-15.983279-.725798Z"/><path fill="#73ff00" d="M31.984756 16.698048c-.004465.102293-.009914.20454-.016344.306732l-15.968175-1.004633Z"/><path fill="#6fff00" d="M31.970142 16.97691c-.006248.102199-.013481.204338-.021692.3064l-15.948213-1.283163Z"/><path fill="#6aff00" d="M31.950666 17.255474c-.008035.102074-.017049.204071-.027042.305977l-15.923387-1.561304Z"/><path fill="#6f0" d="M31.926329 17.533655c-.009816.101921-.020607.203745-.032376.305458l-15.893716-1.838966Z"/><path fill="#62ff00" d="M31.897135 17.811371c-.011587.101734-.024155.203354-.037699.304844l-15.859199-2.116068Z"/><path fill="#5eff00" d="M31.863106 18.088535c-.013365.101515-.027704.2029-.043015.304142l-15.819854-2.39253Z"/><path fill="#59ff00" d="M31.824242 18.365063c-.015133.101265-.031241.202385-.048314.303343l-15.775691-2.668259Z"/><path fill="#5f0" d="M31.78056 18.640867c-.016901.100989-.034768.201811-.053605.302456l-15.726718-2.943176Z"/><path fill="#51ff00" d="M31.732067 18.915871c-.018656.100677-.038284.201172-.058872.301473l-15.672958-3.217197Z"/><path fill="#4dff00" d="M31.678787 19.189985c-.020414.100336-.041792.200474-.064127.3004l-15.614423-3.490238Z"/><path fill="#48ff00" d="M31.620729 19.463127c-.022163.099964-.045284.199715-.06936.299236l-15.551132-3.762216Z"/><path fill="#4f0" d="M31.557909 19.735216c-.023901.099562-.048759.198893-.074566.297976l-15.483106-4.033045Z"/><path fill="#40ff00" d="M31.490356 20.006165c-.025638.099132-.052223.198011-.079761.29663l-15.410358-4.302648Z"/><path fill="#3cff00" d="M31.418083 20.275894c-.027363.098667-.055672.197071-.084925.295197l-15.332921-4.570944Z"/><path fill="#37ff00" d="M31.34111 20.544321c-.029079.098177-.059103.19607-.090061.293669l-15.250812-4.837843Z"/><path fill="#3f0" d="M31.25947 20.811363c-.03079.097655-.062517.195009-.095175.292053l-15.164058-5.103269Z"/><path fill="#2fff00" d="M31.173176 21.076942c-.032488.097102-.065909.193888-.100256.290348l-15.072683-5.367143Z"/><path fill="#2bff00" d="M31.082266 21.340973c-.034182.096519-.069285.192709-.105312.288551l-14.976717-5.629377Z"/><path fill="#26ff00" d="M30.986757 21.603378c-.035858.095906-.072637.191469-.110328.286671l-14.876192-5.889902Z"/><path fill="#2f0" d="M30.886686 21.864075c-.037529.095268-.075967.190172-.115318.284702l-14.771131-6.14863Z"/><path fill="#1eff00" d="M30.782078 22.122986c-.039185.094601-.079273.18882-.120268.282646l-14.661573-6.405485Z"/><path fill="#1aff00" d="M30.672968 22.380032c-.040829.093898-.082556.187404-.125181.280502l-14.54755-6.660387Z"/><path fill="#15ff00" d="M30.559389 22.635136c-.042463.093172-.085815.185936-.130056.278274l-14.429096-6.913263Z"/><path fill="#1f0" d="M30.441376 22.888218c-.044083.092417-.089049.184408-.134896.275963l-14.306243-7.164034Z"/><path fill="#0dff00" d="M30.318962 23.139202c-.045689.091633-.092255.182827-.13969.273565l-14.179035-7.41262Z"/><path fill="#09ff00" d="M30.192186 23.388008c-.047277.090824-.095426.181191-.144441.271088l-14.047508-7.658949Z"/><path fill="#04ff00" d="M30.061092 23.634567c-.048858.089985-.098579.179497-.149154.268526l-13.911701-7.902946Z"/><path fill="#0f0" d="M29.925709 23.878799c-.050419.089119-.101694.17775-.153816.265883l-13.771656-8.144535Z"/><path fill="#00ff04" d="M29.786087 24.120634c-.051968.088224-.10478.175947-.158434.263157l-13.627416-8.383642Z"/><path fill="#00ff09" d="M29.642265 24.359993c-.053499.087305-.107835.174093-.163002.260353l-13.479026-8.620199Z"/><path fill="#00ff0d" d="M29.494289 24.596806c-.055013.086357-.110857.172184-.16752.257467l-13.326532-8.854124Z"/><path fill="#0f1" d="M29.342201 24.831001c-.056513.085383-.113846.170222-.171987.254505l-13.169977-9.085359Z"/><path fill="#00ff15" d="M29.186049 25.062506c-.057995.084383-.116799.168209-.176404.251463l-13.009408-9.313822Z"/><path fill="#00ff1a" d="M29.025883 25.291248c-.059462.083359-.119719.166146-.180767.248349l-12.844879-9.53945Z"/><path fill="#00ff1e" d="M28.861746 25.517164c-.060906.082306-.122599.164028-.185074.245152l-12.676435-9.762171Z"/><path fill="#0f2" d="M28.693691 25.740179c-.062332.081232-.125442.161865-.189323.241884l-12.504131-9.981916Z"/><path fill="#00ff26" d="M28.52177 25.960226c-.063739.080133-.128248.159651-.193513.238546l-12.32802-10.198625Z"/><path fill="#00ff2b" d="M28.346039 26.17724c-.06513.079008-.131018.157389-.197651.235133L16.000237 16.000149Z"/><path fill="#00ff2f" d="M28.166544 26.391153c-.0665.07786-.133745.155081-.201727.231648l-11.96458-10.622654Z"/><path fill="#0f3" d="M27.983341 26.601902c-.067846.076687-.136429.152721-.205736.228092L16.000237 16.000145Z"/><path fill="#00ff37" d="M27.796488 26.809422c-.069174.07549-.139073.150316-.209683.224466L16.000237 16.000147Z"/><path fill="#00ff3c" d="M27.606045 27.013649c-.070482.074272-.141676.147865-.21357.22077L16.000237 16.000145Z"/><path fill="#00ff40" d="M27.412067 27.214521c-.071769.073029-.144237.145369-.217393.217011L16.000237 16.000147Z"/><path fill="#0f4" d="M27.214609 27.411976c-.073032.071766-.146749.14283-.221144.213186L16.000237 16.000149Z"/><path fill="#00ff48" d="M27.013739 27.605955c-.074274.070482-.149222.140249-.224833.209292L16.000237 16.000145Z"/><path fill="#00ff4d" d="M26.809509 27.796402a16.00040822 16.00040822 0 0 1-.228449.205334L16.000237 16.000147Z"/><path fill="#00ff51" d="M26.601992 27.983253c-.076687.067845-.154026.134953-.231999.201315L16.000237 16.000147Z"/><path fill="#0f5" d="M26.391243 28.166454c-.07786.066494-.156355.132244-.235477.197237L16.000237 16.000147Z"/><path fill="#00ff59" d="M26.177328 28.345949c-.079008.065128-.158638.129498-.238882.193098l-9.938209-12.5389Z"/><path fill="#00ff5e" d="M25.960314 28.521683c-.080132.063741-.160874.126709-.242214.1889l-9.717863-12.710436Z"/><path fill="#00ff62" d="M25.740267 28.693604c-.081232.062332-.163063.123882-.245478.18464l-9.494552-12.878097Z"/><path fill="#0f6" d="M25.51725 28.861658c-.082304.060904-.165197.121016-.248659.180328l-9.268354-13.041839Z"/><path fill="#00ff6a" d="M25.29134 29.025791c-.083363.05946-.167288.118117-.251774.175966l-9.039329-13.20161Z"/><path fill="#00ff6f" d="M25.062595 29.185961a16.0191417 16.0191417 0 0 1-.254804.171545l-8.807554-13.357359Z"/><path fill="#00ff73" d="M24.831089 29.342112c-.085382.056514-.171305.112207-.257757.167072l-8.573095-13.509037Z"/><path fill="#0f7" d="M24.596895 29.494198c-.086355.055017-.173237.109203-.260635.162548l-8.336023-13.656599Z"/><path fill="#00ff7b" d="M24.360083 29.642178c-.087304.053499-.175118.106161-.263432.157972l-8.096414-13.800003Z"/><path fill="#00ff80" d="M24.120724 29.785999c-.088223.051968-.176947.103087-.26615.153349l-7.854337-13.939201Z"/><path fill="#00ff84" d="M23.878889 29.925623a16.03013895 16.03013895 0 0 1-.268783.148683l-7.609869-14.074159Z"/><path fill="#0f8" d="M23.634657 30.061001c-.089983.048857-.180435.096847-.27134.14397l-7.36308-14.204826Z"/><path fill="#00ff8c" d="M23.388098 30.192101c-.090821.047277-.182097.093681-.27381.139209l-7.114051-14.331163Z"/><path fill="#00ff91" d="M23.139288 30.318872c-.091633.045689-.183703.090493-.276197.134415l-6.862854-14.45314Z"/><path fill="#00ff95" d="M22.888306 30.441288c-.092417.044079-.185255.087271-.278502.129572l-6.609567-14.570715Z"/><path fill="#0f9" d="M22.635223 30.559299c-.093172.04246-.186748.084027-.280719.124693l-6.354267-14.683845Z"/><path fill="#00ff9d" d="M22.380119 30.67288c-.093897.040827-.188186.080755-.282852.119772l-6.09703-14.792505Z"/><path fill="#00ffa2" d="M22.123077 30.78199c-.094598.039183-.189569.077456-.284904.114819l-5.837936-14.896664Z"/><path fill="#00ffa6" d="M21.864164 30.886597c-.095266.037525-.190893.074138-.286863.109829l-5.577064-14.996279Z"/><path fill="#0fa" d="M21.603468 30.986668c-.095909.03586-.19216.070795-.288736.104807l-5.314495-15.091328Z"/><path fill="#00ffae" d="M21.341063 31.082176c-.09652.034178-.193364.067429-.29052.099751l-5.050306-15.18178Z"/><path fill="#00ffb3" d="M21.07703 31.173086c-.097099.032492-.194509.064049-.292215.094668l-4.784578-15.267607Z"/><path fill="#00ffb7" d="M20.811455 31.25938c-.097653.030789-.195601.060641-.293825.089552l-4.517393-15.348785Z"/><path fill="#0fb" d="M20.544411 31.341022c-.098175.02908-.196627.057221-.295342.08441l-4.248832-15.425285Z"/><path fill="#00ffbf" d="M20.275984 31.417992c-.098669.027364-.197596.053779-.296772.079242l-3.978975-15.497087Z"/><path fill="#00ffc4" d="M20.006252 31.490267a16.00925287 16.00925287 0 0 1-.298105.074051l-3.70791-15.564171Z"/><path fill="#00ffc8" d="M19.735304 31.557821c-.099564.023907-.199352.046852-.299357.068838l-3.43571-15.626512Z"/><path fill="#0fc" d="M19.463217 31.62064c-.099966.022159-.20014.043361-.300511.063602l-3.162469-15.684095Z"/><path fill="#00ffd0" d="M19.190073 31.678698c-.100338.020414-.200867.039861-.301577.058345l-2.888259-15.736896Z"/><path fill="#00ffd5" d="M18.915958 31.731979c-.100677.018662-.20153.036353-.302549.053076l-2.613172-15.784908Z"/><path fill="#00ffd9" d="M18.640957 31.78047c-.100989.016901-.202135.032831-.303431.047787l-2.337289-15.82811Z"/><path fill="#0fd" d="M18.36515 31.824152c-.101266.015137-.202676.029299-.304218.042486l-2.060695-15.866493Z"/><path fill="#00ffe1" d="M18.088623 31.863016c-.101517.013365-.203159.025755-.304913.037169l-1.783473-15.900038Z"/><path fill="#00ffe6" d="M17.811459 31.897047c-.101733.011593-.203576.022207-.305512.031841l-1.50571-15.928741Z"/><path fill="#00ffea" d="M17.533745 31.926239c-.101921.009813-.203932.01865-.306023.026503l-1.227485-15.952595Z"/><path fill="#0fe" d="M17.255562 31.950577c-.102076.00803-.204226.015083-.306437.021158l-.948888-15.971588Z"/><path fill="#00fff2" d="M16.976997 31.970053c-.102199.006252-.204458.011522-.30676.015812l-.67-15.985718Z"/><path fill="#00fff7" d="M16.698135 31.984669c-.102296.004465-.204628.00795-.306989.010448l-.390909-15.994972Z"/><path fill="#00fffb" d="M16.41906 31.994415c-.102356.00268-.204737.004378-.307123.005091l-.1117-15.999361Z"/><path fill="#0ff" d="M16.139858 31.999289c-.102388.000898-.20478.000818-.307168-.000245l.167547-15.998872Z"/><path fill="#00fbff" d="M15.860614 31.999289c-.10239-.000893-.204765-.00277-.307117-.005625l.44674-15.993511Z"/><path fill="#00f7ff" d="M15.58141 31.994415c-.102357-.002681-.204685-.006347-.306971-.010994l.725798-15.98328Z"/><path fill="#00f2ff" d="M15.302335 31.984669c-.102293-.004467-.204541-.009915-.306731-.016344l1.004633-15.968178Z"/><path fill="#0ef" d="M15.023474 31.970053c-.1022-.006249-.204339-.013483-.306401-.021693l1.283164-15.948213Z"/><path fill="#00eaff" d="M14.744911 31.950577a16.02534362 16.02534362 0 0 1-.305978-.027041l1.561304-15.923389Z"/><path fill="#00e6ff" d="M14.466729 31.926239c-.101921-.009815-.203746-.020607-.305459-.032377l1.838967-15.893715Z"/><path fill="#00e1ff" d="M14.189013 31.897047c-.101733-.011589-.203353-.024157-.304845-.037699l2.116069-15.859201Z"/><path fill="#0df" d="M13.91185 31.863016c-.101515-.013365-.202901-.027702-.304141-.043012l2.392528-15.819857Z"/><path fill="#00d9ff" d="M13.635323 31.824152c-.101268-.015133-.202386-.03124-.303345-.048313l2.668259-15.775692Z"/><path fill="#00d5ff" d="M13.359516 31.78047c-.100987-.016901-.201812-.034767-.302456-.053602l2.943177-15.726721Z"/><path fill="#00d0ff" d="M13.084514 31.731979c-.100678-.018657-.201174-.038286-.301473-.058874l3.217196-15.672958Z"/><path fill="#0cf" d="M12.810398 31.678698c-.100336-.020415-.200473-.041789-.300398-.064125l3.490237-15.614426Z"/><path fill="#00c8ff" d="M12.537256 31.62064c-.099964-.022164-.199714-.045283-.299234-.069359l3.762215-15.551134Z"/><path fill="#00c4ff" d="M12.265168 31.557821a16.0017103 16.0017103 0 0 1-.297979-.074571l4.033048-15.483103Z"/><path fill="#00bfff" d="M11.994218 31.490267c-.099131-.025637-.198012-.052225-.296631-.07976l4.30265-15.41036Z"/><path fill="#0bf" d="M11.724489 31.417992a15.97160204 15.97160204 0 0 1-.295195-.084923l4.570943-15.332922Z"/><path fill="#00b7ff" d="M11.456061 31.341022c-.098176-.029081-.196068-.059103-.293667-.090065l4.837843-15.25081Z"/><path fill="#00b3ff" d="M11.189018 31.25938a16.00000532 16.00000532 0 0 1-.292051-.095176l5.10327-15.164057Z"/><path fill="#00aeff" d="M10.923442 31.173086c-.097101-.032486-.193889-.065908-.290348-.100254l5.367143-15.072685Z"/><path fill="#0af" d="M10.65941 31.082176c-.096518-.034181-.192708-.069284-.288553-.105312l5.62938-14.976717Z"/><path fill="#00a6ff" d="M10.397007 30.986668c-.095908-.035857-.19147-.072638-.286671-.110329l5.889901-14.876192Z"/><path fill="#00a2ff" d="M10.136309 30.886597c-.095268-.037529-.190173-.07597-.284701-.115319l6.148629-14.771131Z"/><path fill="#009dff" d="M9.877397 30.78199c-.094597-.039183-.188816-.079273-.282645-.120268l6.405485-14.661575Z"/><path fill="#09f" d="M9.620351 30.67288c-.093899-.040829-.187406-.082559-.280503-.125185l6.660389-14.547548Z"/><path fill="#0095ff" d="M9.365248 30.559299c-.093172-.042459-.185935-.085817-.278276-.130056l6.913265-14.429096Z"/><path fill="#0091ff" d="M9.112166 30.441288c-.092417-.044085-.18441-.08905-.275963-.134895l7.164034-14.306246Z"/><path fill="#008cff" d="M8.861182 30.318872c-.091634-.045686-.182827-.09225-.273566-.13969l7.412621-14.179035Z"/><path fill="#08f" d="M8.612373 30.192097c-.090823-.047276-.181188-.095429-.271087-.144444l7.658951-14.047506Z"/><path fill="#0084ff" d="M8.365815 30.061001c-.089983-.048857-.179497-.098576-.268525-.149153l7.902947-13.911703Z"/><path fill="#0080ff" d="M8.121582 29.925623c-.089117-.050421-.177748-.101696-.265882-.153818l8.144537-13.771658Z"/><path fill="#007bff" d="M7.879751 29.785999c-.088225-.051967-.175948-.104784-.263159-.158434l8.383645-13.627416Z"/><path fill="#07f" d="M7.64039 29.642178a15.99216597 15.99216597 0 0 1-.260352-.163006l8.620199-13.479027Z"/><path fill="#0072ff" d="M7.403577 29.494198c-.086357-.055012-.172183-.110855-.257468-.167519l8.854128-13.326534Z"/><path fill="#006fff" d="M7.169383 29.342112c-.085383-.056515-.170222-.113846-.254504-.171988l9.085358-13.169977Z"/><path fill="#006aff" d="M6.937879 29.185961c-.084384-.057995-.168209-.116802-.251464-.176405l9.313822-13.009409Z"/><path fill="#06f" d="M6.709135 29.025791c-.083359-.05946-.166145-.119716-.248348-.180765l9.53945-12.844879Z"/><path fill="#0062ff" d="M6.48322 28.861658c-.082308-.060907-.164029-.1226-.245154-.185076l9.762171-12.676437Z"/><path fill="#005eff" d="M6.260205 28.693604c-.081232-.062335-.161865-.125445-.241886-.189324l9.981918-12.504133Z"/><path fill="#0059ff" d="M6.040157 28.521683c-.080132-.063742-.15965-.12825-.238545-.193518l10.198625-12.328018Z"/><path fill="#05f" d="M5.823143 28.345949a15.99754695 15.99754695 0 0 1-.235131-.197651l10.412225-12.148151Z"/><path fill="#0051ff" d="M5.60923 28.166454a16.00298734 16.00298734 0 0 1-.231647-.201723l10.622654-11.964584Z"/><path fill="#004dff" d="M5.39848 27.983253c-.076686-.06785-.15272-.13643-.22809-.205738l10.829847-11.777368Z"/><path fill="#0048ff" d="M5.190961 27.796402c-.075491-.069176-.150316-.139072-.224465-.209686l11.033741-11.586569Z"/><path fill="#04f" d="M4.986734 27.605955c-.074272-.07048-.147865-.141674-.220771-.21357l11.234274-11.392236Z"/><path fill="#0040ff" d="M4.785864 27.411976c-.073032-.071768-.145373-.144234-.217012-.217388l11.431385-11.194441Z"/><path fill="#003cff" d="M4.588408 27.214521c-.071768-.07303-.142833-.146749-.213185-.221145l11.625014-10.993231Z"/><path fill="#0037ff" d="M4.394428 27.013649c-.070482-.074274-.140249-.14922-.209293-.224834l11.815102-10.78867Z"/><path fill="#03f" d="M4.203983 26.809422c-.069174-.07549-.137623-.151644-.205336-.228449l12.00159-10.580828Z"/><path fill="#002fff" d="M4.017132 26.601902c-.067847-.076687-.134956-.154024-.201318-.231997l12.184423-10.369758Z"/><path fill="#002bff" d="M3.833931 26.391153c-.066498-.07786-.132247-.156355-.197238-.235477l12.363544-10.155529Z"/><path fill="#0026ff" d="M3.654436 26.17724c-.065129-.079008-.129499-.15864-.193099-.238884l12.5389-9.938209Z"/><path fill="#02f" d="M3.478702 25.960226c-.063741-.080133-.126711-.160875-.188901-.242216l12.710436-9.717861Z"/><path fill="#001eff" d="M3.306781 25.740177c-.062332-.081234-.123883-.163063-.184644-.245476l12.8781-9.494556Z"/><path fill="#001aff" d="M3.138727 25.517164c-.060905-.082308-.121018-.165201-.180332-.248663l13.041842-9.268356Z"/><path fill="#0015ff" d="M2.974591 25.291248c-.059459-.083358-.118117-.167286-.175965-.25177l13.201611-9.039331Z"/><path fill="#01f" d="M2.814423 25.062504c-.057995-.084383-.115179-.169321-.171544-.254805l13.357358-8.807552Z"/><path fill="#000dff" d="M2.658271 24.831001a16.0200487 16.0200487 0 0 1-.167071-.257759l13.509037-8.573095Z"/><path fill="#0009ff" d="M2.506185 24.596807a15.99376345 15.99376345 0 0 1-.162548-.260637l13.6566-8.336021Z"/><path fill="#0004ff" d="M2.358207 24.359993c-.0535-.087301-.10616-.175118-.157974-.263433l13.800004-8.096411Z"/><path fill="#00f" d="M2.214386 24.120634c-.051969-.088224-.103089-.176945-.153353-.266149l13.939204-7.854338Z"/><path fill="#0400ff" d="M2.074763 23.878801c-.05042-.089117-.099984-.178716-.148684-.268785l14.074158-7.609869Z"/><path fill="#0900ff" d="M1.939382 23.634567c-.048857-.089983-.096849-.180435-.14397-.271337l14.204825-7.363083Z"/><path fill="#0d00ff" d="M1.808285 23.388008c-.047279-.09082-.093686-.182094-.139213-.273809l14.331165-7.114052Z"/><path fill="#10f" d="M1.68151 23.139202c-.045687-.091635-.090493-.183704-.134412-.276199l14.453139-6.862856Z"/><path fill="#1500ff" d="M1.559097 22.888218c-.04408-.092419-.087273-.185257-.129571-.278503l14.570711-6.609568Z"/><path fill="#1a00ff" d="M1.441083 22.635136c-.042461-.093174-.084027-.186751-.124691-.28072l14.683845-6.354269Z"/><path fill="#1e00ff" d="M1.327504 22.380032c-.040828-.093899-.080755-.188187-.119773-.282853l14.792506-6.097032Z"/><path fill="#20f" d="M1.218395 22.122986c-.039184-.094597-.077459-.189568-.114819-.284901l14.896661-5.837938Z"/><path fill="#2600ff" d="M1.113788 21.864075c-.037527-.095267-.074139-.190892-.109829-.286862l14.996278-5.577066Z"/><path fill="#2b00ff" d="M1.013715 21.603378c-.035858-.095909-.070795-.192157-.104806-.288736l15.091328-5.314495Z"/><path fill="#2f00ff" d="M.918208 21.340973a15.99965377 15.99965377 0 0 1-.099751-.29052l15.18178-5.050306Z"/><path fill="#30f" d="M.827295 21.076942c-.032489-.097099-.064046-.194511-.094666-.292217l15.267608-4.784578Z"/><path fill="#3700ff" d="M.741004 20.811367c-.03079-.097652-.060642-.195602-.089552-.293827l15.348785-4.517393Z"/><path fill="#3c00ff" d="M.65936 20.544323c-.02908-.098175-.057218-.196629-.084409-.295342l15.425286-4.248834Z"/><path fill="#4000ff" d="M.58239 20.275894a15.99336047 15.99336047 0 0 1-.079242-.296772l15.497089-3.978975Z"/><path fill="#40f" d="M.510116 20.006165c-.025637-.099131-.050321-.198504-.07405-.298108l15.564171-3.70791Z"/><path fill="#4800ff" d="M.442561 19.735216a16.00060802 16.00060802 0 0 1-.068837-.299356l15.626513-3.435713Z"/><path fill="#4d00ff" d="M.379744 19.463127c-.022161-.099964-.043363-.200138-.063601-.30051l15.684094-3.16247Z"/><path fill="#5100ff" d="M.321686 19.189983c-.020414-.100334-.039864-.200866-.058347-.301574l15.736898-2.888262Z"/><path fill="#50f" d="M.268404 18.915871c-.01866-.100678-.036352-.201531-.053076-.30255l15.784909-2.613174Z"/><path fill="#5900ff" d="M.219913 18.640867c-.016899-.100988-.032829-.202135-.047787-.303427l15.828111-2.337293Z"/><path fill="#5e00ff" d="M.17623 18.365063a15.9918305 15.9918305 0 0 1-.042484-.304219l15.866491-2.060697Z"/><path fill="#6200ff" d="M.137366 18.088531c-.013364-.101512-.025754-.203155-.037168-.304908l15.900039-1.783476Z"/><path fill="#60f" d="M.103335 17.811369c-.011591-.101734-.022205-.203577-.031841-.305513l15.928743-1.505709Z"/><path fill="#6a00ff" d="M.074146 17.533655c-.009814-.101919-.018649-.203932-.026505-.306024l15.952596-1.227484Z"/><path fill="#6f00ff" d="M.049808 17.255474c-.008033-.102077-.015087-.204229-.021159-.30644l15.971588-.948887Z"/><path fill="#7300ff" d="M.030329 16.97691c-.006251-.1022-.01152-.204461-.015808-.306763l15.985716-.67Z"/><path fill="#70f" d="M.015715 16.698048c-.004467-.102295-.007951-.20463-.010453-.306992l15.994975-.390909Z"/><path fill="#7b00ff" d="M.005969 16.418972c-.00268-.102356-.004378-.204737-.005093-.307125l15.999361-.1117Z"/><path fill="#8000ff" d="M.001096 16.139771c-.000894-.102387-.000805-.204783.000268-.307169l15.998873.167545Z"/><path fill="#8400ff" d="M.001096 15.860525c.000893-.102388.002769-.204765.005628-.307117l15.993513.446739Z"/><path fill="#80f" d="M.005969 15.581324c.00268-.102358.006343-.204687.010988-.306973l15.98328.725796Z"/><path fill="#8c00ff" d="M.015715 15.302248c.004466-.102295.009914-.204542.016343-.306732l15.968179 1.004631Z"/><path fill="#9100ff" d="M.030329 15.023386c.006251-.102201.013483-.204338.021694-.306402l15.948214 1.283163Z"/><path fill="#9500ff" d="M.049808 14.744822c.008034-.102078.017047-.204073.027039-.305977l15.92339 1.561302Z"/><path fill="#90f" d="M.074146 14.466639c.009814-.10192.020606-.203745.032374-.305459l15.893717 1.838967Z"/><path fill="#9d00ff" d="M.103335 14.188925c.011591-.101734.024159-.203354.037701-.304848l15.859201 2.11607Z"/><path fill="#a200ff" d="M.137366 13.911762c.013365-.101515.027704-.202902.043015-.304144l15.819856 2.392529Z"/><path fill="#a600ff" d="M.17623 13.635235c.015134-.101269.03124-.202389.048316-.303345l15.775691 2.668257Z"/><path fill="#a0f" d="M.219913 13.359428c.0169-.100988.034768-.201812.053604-.302455l15.72672 2.943174Z"/><path fill="#ae00ff" d="M.268404 13.084425c.018659-.100678.038284-.201174.058873-.301472l15.67296 3.217194Z"/><path fill="#b300ff" d="M.321686 12.81031c.020414-.100336.04179-.200473.064126-.300399l15.614425 3.490236Z"/><path fill="#b700ff" d="M.379744 12.537167c.022162-.099965.045283-.199713.069359-.299235l15.551134 3.762215Z"/><path fill="#b0f" d="M.442561 12.265079c.023903-.099563.048761-.198892.07457-.297979l15.483106 4.033047Z"/><path fill="#bf00ff" d="M.510116 11.994131c.025637-.099131.052225-.198013.07976-.296635l15.410361 4.302651Z"/><path fill="#c400ff" d="M.58239 11.724401c.027363-.098669.055673-.197071.084925-.295194l15.332922 4.57094Z"/><path fill="#c800ff" d="M.65936 11.455973c.029081-.098175.059104-.196068.090064-.293667l15.250813 4.837841Z"/><path fill="#c0f" d="M.741004 11.188929c.030789-.097653.062516-.195008.095175-.29205l15.164058 5.103268Z"/><path fill="#d000ff" d="M.827295 10.923351c.032489-.097101.06591-.193886.100258-.290346l15.072684 5.367142Z"/><path fill="#d500ff" d="M.918208 10.659321c.034179-.09652.069284-.192707.10531-.288551l14.976719 5.629377Z"/><path fill="#d900ff" d="M1.013716 10.396915c.035858-.095907.072636-.191467.110329-.286668l14.876192 5.8899Z"/><path fill="#d0f" d="M1.113788 10.136219c.037526-.095266.075967-.190172.115316-.2847l14.771133 6.148628Z"/><path fill="#e100ff" d="M1.218395 9.877308c.039183-.094597.079274-.188816.120267-.282646l14.661575 6.405485Z"/><path fill="#e600ff" d="M1.327504 9.620262c.040829-.093899.082558-.187404.125181-.280504l14.547552 6.660389Z"/><path fill="#ea00ff" d="M1.441083 9.36516c.042461-.093174.085816-.185934.130058-.278276l14.429096 6.913263Z"/><path fill="#e0f" d="M1.559097 9.112078c.044081-.092419.089048-.18441.134895-.275965l14.306245 7.164034Z"/><path fill="#f200ff" d="M1.68151 8.861094c.045687-.091633.092253-.182827.13969-.273568l14.179037 7.412621Z"/><path fill="#f700ff" d="M1.808285 8.612286c.047279-.090823.095429-.181191.144443-.271088l14.047509 7.658949Z"/><path fill="#fb00ff" d="M1.939382 8.365726c.048857-.089984.098577-.179496.149153-.268524l13.911702 7.902945Z"/><path fill="#f0f" d="M2.074763 8.121492c.05042-.089115.101694-.177747.153816-.26588l13.771658 8.144535Z"/><path fill="#ff00fb" d="M2.214386 7.87966c.051967-.088223.10478-.175946.158432-.263155l13.627419 8.383642Z"/><path fill="#ff00f7" d="M2.358207 7.640301c.053499-.087303.107836-.174092.163002-.260351l13.479028 8.620197Z"/><path fill="#ff00f2" d="M2.506184 7.403488c.055015-.086359.110858-.172184.167521-.257467l13.326532 8.854126Z"/><path fill="#f0e" d="M2.658272 7.169292c.056514-.085382.113846-.170221.171988-.254503l13.169977 9.085358Z"/><path fill="#ff00ea" d="M2.814423 6.93779c.057996-.084383.1168-.168211.176405-.251465l13.009409 9.313822Z"/><path fill="#ff00e6" d="M2.974591 6.709045c.059459-.08336.119718-.166145.180767-.248348l12.844879 9.53945Z"/><path fill="#ff00e1" d="M3.138727 6.483133c.060905-.082311.1226-.164032.185073-.245157l12.676437 9.762171Z"/><path fill="#f0d" d="M3.306781 6.260117c.062332-.081232.125443-.161866.189323-.241887l12.504133 9.981917Z"/><path fill="#ff00d9" d="M3.478701 6.04007c.063741-.080134.128249-.159651.193516-.238547l12.32802 10.198624Z"/><path fill="#ff00d5" d="M3.654436 5.823055c.065129-.079008.131015-.15739.197649-.235132l12.148152 10.412224Z"/><path fill="#ff00d0" d="M3.833931 5.60914c.066498-.077858.133742-.155078.201722-.231645l11.964584 10.622652Z"/><path fill="#f0c" d="M4.017132 5.398392c.067847-.076685.136428-.15272.205735-.228091l11.77737 10.829846Z"/><path fill="#ff00c8" d="M4.203983 5.190872c.069175-.075491.139073-.150316.209685-.224466l11.586569 11.033741Z"/><path fill="#ff00c4" d="M4.394428 4.986647c.070482-.074273.141675-.147868.213569-.220772l11.39224 11.234272Z"/><path fill="#ff00bf" d="M4.588408 4.785772c.071767-.073028.144234-.14537.21739-.21701l11.194439 11.431385Z"/><path fill="#f0b" d="M4.785864 4.58832c.07303-.07177.146748-.142834.221144-.213185l10.993229 11.625012Z"/><path fill="#ff00b7" d="M4.986736 4.394337c.074272-.070481.149219-.140248.224831-.209292l10.78867 11.815102Z"/><path fill="#ff00b3" d="M5.190961 4.203896c.075492-.069178.151646-.137625.228451-.20534l10.580825 12.001591Z"/><path fill="#ff00ae" d="M5.39848 4.017042c.076688-.067846.154025-.134956.232001-.201319l10.369756 12.184424Z"/><path fill="#f0a" d="M5.60923 3.833843c.077859-.066499.156355-.132248.235477-.197239l10.15553 12.363543Z"/><path fill="#ff00a6" d="M5.823143 3.654346c.079009-.065128.15864-.129497.238884-.193098l9.93821 12.538899Z"/><path fill="#ff00a2" d="M6.040157 3.478613c.080133-.06374.160876-.126711.242217-.1889l9.717863 12.710434Z"/><path fill="#ff009d" d="M6.260205 3.306692a15.9976365 15.9976365 0 0 1 .245477-.184643l9.494555 12.878098Z"/><path fill="#f09" d="M6.48322 3.138639c.082308-.060905.1652-.121019.248662-.180332l9.268355 13.04184Z"/><path fill="#ff0095" d="M6.709134 2.974503c.083359-.05946.167286-.118119.251771-.175965l9.039332 13.201609Z"/><path fill="#ff0091" d="M6.937878 2.814335c.084384-.057995.169322-.115179.254804-.171543l8.807555 13.357355Z"/><path fill="#ff008c" d="M7.169382 2.658184c.085384-.056515.171308-.112207.25776-.167072l8.573095 13.509035Z"/><path fill="#f08" d="M7.403577 2.506096c.086356-.055016.173239-.109202.260636-.162548l8.336024 13.656599Z"/><path fill="#ff0084" d="M7.64039 2.358118c.087304-.053499.175119-.106161.263432-.157974l8.096415 13.800003Z"/><path fill="#ff0080" d="M7.87975 2.214296c.088224-.051969.176944-.103086.266149-.153352l7.854338 13.939203Z"/><path fill="#ff007b" d="M8.121583 2.074673c.089117-.050419.178717-.099984.268785-.148684l7.609869 14.074158Z"/><path fill="#f07" d="M8.365815 1.939295c.089984-.048859.180434-.096852.271341-.143971l7.363081 14.204823Z"/><path fill="#ff0073" d="M8.612373 1.808197c.090824-.047281.182098-.093687.273813-.139214l7.114051 14.331164Z"/><path fill="#ff006f" d="M8.861182 1.681421c.091634-.045686.183706-.090492.276201-.134412l6.862854 14.453138Z"/><path fill="#ff006a" d="M9.112166 1.55901c.092417-.044083.185256-.087275.278502-.129572l6.609569 14.570709Z"/><path fill="#f06" d="M9.365248 1.440994c.093173-.042461.18675-.084026.280721-.124691l6.354268 14.683844Z"/><path fill="#ff0062" d="M9.620351 1.327415c.0939-.040828.188188-.080755.282855-.119773l6.097031 14.792505Z"/><path fill="#ff005e" d="M9.877397 1.218306c.094597-.039183.18957-.077458.284901-.114819l5.837939 14.89666Z"/><path fill="#ff0059" d="M10.136308 1.113699c.095268-.037527.190893-.074139.286862-.109827l5.577067 14.996275Z"/><path fill="#f05" d="M10.397006 1.013626c.095907-.035858.192157-.070795.288734-.104807l5.314497 15.091328Z"/><path fill="#ff0051" d="M10.65941.918119c.096519-.034179.193364-.06743.29052-.09975l5.050307 15.181778Z"/><path fill="#ff004d" d="M10.923442.827206c.0971-.03249.19451-.064045.292216-.094664l4.784579 15.267605Z"/><path fill="#ff0048" d="M11.189018.740913c.097654-.03079.1956-.06064.293826-.08955l4.517393 15.348784Z"/><path fill="#f04" d="M11.456062.659271c.098175-.029079.196627-.057218.295344-.084409l4.248831 15.425285Z"/><path fill="#ff0040" d="M11.724489.582302c.098668-.027363.197597-.05378.296771-.079243l3.978977 15.497088Z"/><path fill="#ff003c" d="M11.994218.510027c.099131-.025637.198505-.050322.298111-.074051l3.707908 15.564171Z"/><path fill="#ff0037" d="M12.265168.442472c.099563-.023902.199353-.04685.299358-.068838l3.435711 15.626513Z"/><path fill="#f03" d="M12.537256.379656a15.9977902 15.9977902 0 0 1 .300513-.063603l3.162468 15.684094Z"/><path fill="#ff002f" d="M12.810398.321596c.100337-.020412.200867-.039862.301577-.058346l2.888262 15.736897Z"/><path fill="#ff002b" d="M13.084514.268314c.100676-.018657.20153-.03635.302546-.053075l2.613177 15.784908Z"/><path fill="#ff0026" d="M13.359516.219826c.100988-.016901.202134-.032831.303428-.047787l2.337293 15.828108Z"/><path fill="#f02" d="M13.635323.17614c.101266-.015135.202676-.029297.304215-.042484l2.060699 15.866491Z"/><path fill="#ff001e" d="M13.91185.137278c.101516-.013365.203158-.025755.304911-.037169l1.783476 15.900038Z"/><path fill="#ff001a" d="M14.189013.103247c.101735-.011591.203577-.022206.305514-.031842l1.50571 15.928742Z"/><path fill="#ff0015" d="M14.466729.074059c.10192-.009816.203931-.018652.306022-.026507l1.227486 15.952595Z"/><path fill="#f01" d="M14.744911.049721c.102075-.008036.204227-.015089.306438-.02116l.948888 15.971586Z"/><path fill="#ff000d" d="M15.023476.030239c.1022-.006248.204458-.01152.30676-.015808l.670001 15.985716Z"/><path fill="#ff0009" d="M15.302335.015625c.102296-.004465.204631-.00795.306992-.01045l.39091 15.994972Z"/><path fill="#ff0004" d="M15.58141.00588c.102358-.002681.204738-.004377.307126-.005092l.111701 15.999359Z"/><radialGradient id="a" cx="16.000236" cy="16.000146" r="15.99975" fx="16.000236" fy="16.000146" gradientUnits="userSpaceOnUse"><stop offset="1e-05" stop-opacity="0"/><stop offset="1" stop-color="#fff" stop-opacity="0"/></radialGradient><path fill="url(#a)" d="M31.999987 16.000145c0 8.836418-7.163332 15.999748-15.99975 15.999748-8.836419 0-15.999751-7.16333-15.999751-15.999748 0-8.836416 7.163332-15.99975 15.999751-15.99975 8.836418 0 15.99975 7.163334 15.99975 15.99975Z"/><path fill-opacity="0.652562" d="M30 16c0 7.731987-6.268013 14-14 14-7.731986 0-14-6.268013-14-14S8.268014 2 16 2c7.731987 0 14 6.268013 14 14Z"/><g fill="#fff"><path d="M9.950524 8.587852c0 2.68311 1.663111 4.293297 4.987729 5.132069l3.528298.819527c3.140184.726509 5.064712 2.521129 5.064712 5.448013.025584 1.276035-.388969 2.521965-1.173963 3.528298 0-2.918866-1.51075-4.490563-5.152916-5.452826l-3.456128-.777826c-2.776129-.64151-4.917164-2.113772-4.917164-5.292448-.012943-1.227906.381899-2.425406 1.12264-3.404807"/><path opacity="0.5" d="M20.193813 19.273783c1.501129.962263 2.163487 2.306223 2.163487 4.238767C21.098341 25.105095 18.925228 26 16.354383 26c-4.312541 0-7.366122-2.141033-8.018857-5.823296h4.147353c.535659 1.699997 1.95179 2.485848 3.83943 2.485848 2.307827 0 3.849051-1.230093 3.871504-3.388769m-8.083008-6.695748c-1.443395-.923772-2.160281-2.224432-2.160281-3.990183 1.204433-1.579715 3.290939-2.545187 5.837729-2.545187 4.407164 0 6.957162 2.328677 7.585839 5.603579h-3.998203c-.441036-1.291037-1.541224-2.298206-3.557164-2.298206-2.149054 0-3.614902 1.249342-3.70792 3.229997"/></g></svg>